.
 
http://www.scenetime.com    -   SceneTime [ We been having it ] !!!


How come you press harder on a remote control when you know the battery is dead? so you better seed to get speed ;)

        Seed back for speed


...................................NFO:.................................................SCR0N


   General
      Complete name : Captain America The First Avenger 2011 TS XviD AC3-SCR0N
      Format : AVI
      Format/Info : Audio Video Interleave
      Format profile : OpenDML
      Format settings : rec
      File size : 1.62 GiB
      Duration : 1h 53mn
      Overall bit rate : 2 035 Kbps
      Writing application : AVI-Mux GUI 1.17.8.3, Feb 16 201019:42:50
   Video #0
      ID : 0
      Format : MPEG-4 Visual
      Format profile : Advanced Simple@L5
      Format settings, BVOP : 2
      Format settings, QPel : No
      Format settings, GMC : No warppoints
      Format settings, Matrix : Default (MPEG)
      Muxing mode : Packed bitstream
      Codec ID : XVID
      Codec ID/Hint : XviD
      Duration : 1h 53mn
      Bit rate : 1 581 Kbps
      Width : 720 pixels
      Height : 320 pixels
      Display aspect ratio : 2.25:1
      Frame rate : 29.970 fps
      Color space : YUV
      Chroma subsampling : 4:2:0
      Bit depth : 8 bits
      Scan type : Progressive
      Compression mode : Lossy
      Bits/(Pixel*Frame) : 0.229
      Stream size : 1.26 GiB (78%)
      Writing library : XviD 64
   Audio #1
      ID : 1
      Format : AC-3
      Format/Info : Audio Coding 3
      Mode extension : CM (complete main)
      Codec ID : 2000
      Duration : 1h 53mn
      Bit rate mode : Constant
      Bit rate : 448 Kbps
      Channel(s) : 2 channels
      Channel positions : Front: L R
      Sampling rate : 48.0 KHz
      Bit depth : 16 bits
      Compression mode : Lossy
      Stream size : 364 MiB (22%)
      Alignment : Aligned on interleaves
      Interleave, duration : 64 ms (1.92 video frames)
      Interleave, preload duration : 192 ms
     
Thanks to all p2p groups......